<?xml version="1.0" encoding="UTF-8"?>
<svg width="18px" height="18px" viewBox="0 0 18 18" version="1.1" xmlns="http://www.w3.org/2000/svg" xmlns:xlink="http://www.w3.org/1999/xlink">
    <title>heart-fill</title>
    <g id="页面-1" stroke="none" stroke-width="1" fill="none" fill-rule="evenodd" opacity="0.6">
        <g id="推荐" transform="translate(-45.000000, -214.000000)" fill-rule="nonzero">
            <g id="编组-5" transform="translate(45.000000, 212.000000)">
                <g id="heart-fill" transform="translate(0.000000, 2.000000)">
                    <rect id="矩形" fill="#000000" opacity="0" x="0" y="0" width="18" height="18"></rect>
                    <path d="M16.2246094,4.98515625 C15.9890625,4.43847656 15.6515625,3.94980469 15.2244141,3.5296875 C14.7972656,3.11132812 14.3015625,2.784375 13.7478516,2.55410156 C13.1765625,2.31679688 12.571875,2.19726562 11.9478516,2.19726562 C11.08125,2.19726562 10.2357422,2.43457031 9.50097656,2.8828125 C9.32519531,2.99003906 9.15820312,3.1078125 9,3.23613281 C8.84179688,3.1078125 8.67480469,2.99003906 8.49902344,2.8828125 C7.76425781,2.43457031 6.91875,2.19726562 6.05214844,2.19726562 C5.428125,2.19726562 4.8234375,2.31679688 4.25214844,2.55410156 C3.70019531,2.78261719 3.20273437,3.11132812 2.77558594,3.5296875 C2.34667969,3.94980469 2.0109375,4.43847656 1.77539062,4.98515625 C1.53105469,5.55292969 1.40625,6.15585937 1.40625,6.77636719 C1.40625,7.36171875 1.52578125,7.97167969 1.76308594,8.5921875 C1.96171875,9.11074219 2.24648438,9.64863281 2.61035156,10.1917969 C3.18691406,11.0513672 3.9796875,11.9478516 4.9640625,12.8566406 C6.5953125,14.3630859 8.21074219,15.4037109 8.27929688,15.4458984 L8.69589844,15.7130859 C8.88046875,15.8308594 9.11777344,15.8308594 9.30234375,15.7130859 L9.71894531,15.4458984 C9.7875,15.4019531 11.4011719,14.3630859 13.0341797,12.8566406 C14.0185547,11.9478516 14.8113281,11.0513672 15.3878906,10.1917969 C15.7517578,9.64863281 16.0382813,9.11074219 16.2351563,8.5921875 C16.4724609,7.97167969 16.5920105,7.36171875 16.5920105,6.77636719 C16.59375,6.15585937 16.4689453,5.55292969 16.2246094,4.98515625 Z" id="路径" fill="#333333"></path>
                </g>
            </g>
        </g>
    </g>
</svg>