<?xml version="1.0" encoding="UTF-8"?>
<svg width="20px" height="20px" viewBox="0 0 20 20" version="1.1" xmlns="http://www.w3.org/2000/svg" xmlns:xlink="http://www.w3.org/1999/xlink">
    <title>喜欢</title>
    <g id="页面-1" stroke="none" stroke-width="1" fill="none" fill-rule="evenodd">
        <g id="推荐" transform="translate(-1369.000000, -601.000000)" fill-rule="nonzero">
            <g id="编组-15备份" transform="translate(1368.000000, 601.000000)">
                <g id="heart-fill" transform="translate(1.000000, 0.000000)">
                    <rect id="矩形" fill="#000000" opacity="0" x="0" y="0" width="20" height="20"></rect>
                    <path d="M18.0273437,5.5390625 C17.765625,4.93164062 17.390625,4.38867188 16.9160156,3.921875 C16.4414062,3.45703125 15.890625,3.09375 15.2753906,2.83789062 C14.640625,2.57421875 13.96875,2.44140625 13.2753906,2.44140625 C12.3125,2.44140625 11.3730469,2.70507812 10.5566406,3.203125 C10.3613281,3.32226562 10.1757812,3.453125 10,3.59570312 C9.82421875,3.453125 9.63867188,3.32226562 9.44335937,3.203125 C8.62695312,2.70507812 7.6875,2.44140625 6.72460937,2.44140625 C6.03125,2.44140625 5.359375,2.57421875 4.72460938,2.83789062 C4.11132812,3.09179688 3.55859375,3.45703125 3.08398438,3.921875 C2.60742188,4.38867188 2.234375,4.93164062 1.97265625,5.5390625 C1.70117187,6.16992188 1.5625,6.83984375 1.5625,7.52929687 C1.5625,8.1796875 1.6953125,8.85742187 1.95898438,9.546875 C2.1796875,10.1230469 2.49609375,10.7207031 2.90039062,11.3242187 C3.54101562,12.2792969 4.421875,13.2753906 5.515625,14.2851562 C7.328125,15.9589844 9.12304687,17.1152344 9.19921875,17.1621094 L9.66210937,17.4589844 C9.8671875,17.5898438 10.1308594,17.5898438 10.3359375,17.4589844 L10.7988281,17.1621094 C10.875,17.1132812 12.6679688,15.9589844 14.4824219,14.2851562 C15.5761719,13.2753906 16.4570312,12.2792969 17.0976562,11.3242188 C17.5019531,10.7207031 17.8203125,10.1230469 18.0390625,9.546875 C18.3027344,8.85742188 18.4355672,8.1796875 18.4355672,7.52929688 C18.4375,6.83984375 18.2988281,6.16992188 18.0273437,5.5390625 Z" id="路径" fill="#FF7070"></path>
                </g>
            </g>
        </g>
    </g>
</svg>