<?xml version="1.0" encoding="UTF-8"?>
<svg width="20px" height="20px" viewBox="0 0 20 20" version="1.1" xmlns="http://www.w3.org/2000/svg" xmlns:xlink="http://www.w3.org/1999/xlink">
    <title>编组 31</title>
    <g id="页面-1" stroke="none" stroke-width="1" fill="none" fill-rule="evenodd">
        <g id="选择作品" transform="translate(-1860.000000, -103.000000)" fill-rule="nonzero">
            <g id="编组-3" transform="translate(1859.000000, 103.000000)">
                <g id="编组-31" transform="translate(1.000000, 0.000000)">
                    <rect id="矩形" fill="#000000" opacity="0" x="0" y="0" width="20" height="20"></rect>
                    <path d="M2.22222222,3.33333333 L18.8888889,3.33333333 L18.8888889,16.527381 L7.79603175,16.527381 L2.22222222,20 L2.22222222,3.33333333 Z M7.39960317,15.1392857 L17.4996032,15.1392857 L17.4996032,4.72261905 L3.61150794,4.72261905 L3.61150794,17.4988095 L7.39960317,15.1392857 Z M6.38888889,8.88928571 L8.47222222,8.88928571 L8.47222222,10.972619 L6.38888889,10.972619 L6.38888889,8.88928571 Z M9.86150794,8.88928571 L11.9448413,8.88928571 L11.9448413,10.972619 L9.86150794,10.972619 L9.86150794,8.88928571 Z M13.3329365,8.88928571 L15.4162698,8.88928571 L15.4162698,10.972619 L13.3329365,10.972619 L13.3329365,8.88928571 Z" id="形状备份-4" fill="#333333"></path>
                </g>
            </g>
        </g>
    </g>
</svg>