<?xml version="1.0" encoding="UTF-8"?>
<svg width="20px" height="20px" viewBox="0 0 20 20" version="1.1" xmlns="http://www.w3.org/2000/svg" xmlns:xlink="http://www.w3.org/1999/xlink">
    <title>评论</title>
    <g id="页面-1" stroke="none" stroke-width="1" fill="none" fill-rule="evenodd">
        <g id="推荐" transform="translate(-1369.000000, -653.000000)" fill-rule="nonzero">
            <g id="编组-15备份" transform="translate(1368.000000, 601.000000)">
                <g id="编组-13" transform="translate(0.000000, 52.000000)">
                    <g id="编组-21" transform="translate(1.000000, 0.000000)">
                        <rect id="矩形" fill="#000000" opacity="0" x="0" y="0" width="20" height="20"></rect>
                        <path d="M2,2 L18,2 L18,14.6662857 L7.35085714,14.6662857 L2,18 L2,2 Z M6.97028571,13.3337143 L16.6662857,13.3337143 L16.6662857,3.33371429 L3.33371429,3.33371429 L3.33371429,15.5988571 L6.97028571,13.3337143 Z M6,7.33371429 L8,7.33371429 L8,9.33371429 L6,9.33371429 L6,7.33371429 Z M9.33371429,7.33371429 L11.3337143,7.33371429 L11.3337143,9.33371429 L9.33371429,9.33371429 L9.33371429,7.33371429 Z M12.6662857,7.33371429 L14.6662857,7.33371429 L14.6662857,9.33371429 L12.6662857,9.33371429 L12.6662857,7.33371429 Z" id="形状" fill="#FFFFFF"></path>
                    </g>
                </g>
            </g>
        </g>
    </g>
</svg>