<?xml version="1.0" encoding="UTF-8"?>
<svg width="16px" height="16px" viewBox="0 0 16 16" version="1.1" xmlns="http://www.w3.org/2000/svg" xmlns:xlink="http://www.w3.org/1999/xlink">
    <title>编组 23</title>
    <g id="页面-1" stroke="none" stroke-width="1" fill="none" fill-rule="evenodd">
        <g id="推荐评论2" transform="translate(-1569.000000, -225.000000)" fill-rule="nonzero">
            <g id="编组-24" transform="translate(1453.000000, 163.000000)">
                <g id="编组-22" transform="translate(55.000000, 61.000000)">
                    <g id="编组-25" transform="translate(61.000000, 0.000000)">
                        <g id="编组-23" transform="translate(0.000000, 1.000000)">
                            <rect id="矩形" fill="#666666" opacity="0" x="0" y="0" width="16" height="16"></rect>
                            <g id="形状-2" transform="translate(1.000000, 2.000000)" fill="#333333">
                                <path d="M0,0 L13,0 L13,10.2913571 L4.34757143,10.2913571 L0,13 L0,0 Z M4.03835714,9.20864286 L11.9163571,9.20864286 L11.9163571,1.08364286 L1.08364286,1.08364286 L1.08364286,11.0490714 L4.03835714,9.20864286 Z M3.25,4.33364286 L4.875,4.33364286 L4.875,5.95864286 L3.25,5.95864286 L3.25,4.33364286 Z M5.95864286,4.33364286 L7.58364286,4.33364286 L7.58364286,5.95864286 L5.95864286,5.95864286 L5.95864286,4.33364286 Z M8.66635714,4.33364286 L10.2913571,4.33364286 L10.2913571,5.95864286 L8.66635714,5.95864286 L8.66635714,4.33364286 Z" id="形状"></path>
                            </g>
                        </g>
                    </g>
                </g>
            </g>
        </g>
    </g>
</svg>