<?xml version="1.0" encoding="UTF-8"?>
<svg width="16px" height="16px" viewBox="0 0 16 16" version="1.1" xmlns="http://www.w3.org/2000/svg" xmlns:xlink="http://www.w3.org/1999/xlink">
    <title>l-love</title>
    <g id="页面-1" stroke="none" stroke-width="1" fill="none" fill-rule="evenodd">
        <g id="推荐评论2" transform="translate(-1508.000000, -225.000000)" fill-rule="nonzero">
            <g id="编组-24" transform="translate(1453.000000, 163.000000)">
                <g id="编组-22" transform="translate(55.000000, 61.000000)">
                    <g id="l-love" transform="translate(0.000000, 1.000000)">
                        <rect id="矩形" fill="#666666" opacity="0" x="0" y="0" width="16" height="16"></rect>
                        <path d="M8,14.3219219 C7.74090625,14.3219219 7.51107813,14.2527344 7.29735938,14.1103906 L7.24951562,14.0785312 L7.21910937,14.0481094 C7.19476562,14.0272969 7.12771875,13.9723437 7.06270312,13.9190313 C6.6996875,13.6214531 5.84959375,12.9245781 4.95503125,12.08575 C3.82532812,11.0264219 3.00242187,10.0960625 2.50903125,9.32034375 C2.25754687,8.94289062 1.99692187,8.52651563 1.79204687,8.03990625 C1.54298437,7.448375 1.42192187,6.86401562 1.42192187,6.25345313 C1.42192187,5.14595312 1.82170312,4.09817187 2.54760937,3.303125 C2.90523437,2.9114375 3.32239062,2.6030625 3.78748437,2.38659375 C4.27475,2.15978125 4.79198438,2.04479687 5.32479687,2.04479687 C5.90304687,2.04479687 6.48867187,2.18929687 7.01835937,2.4626875 C7.3786875,2.64865625 7.71529687,2.89542187 8.01135937,3.18884375 C8.71859375,2.46448437 9.68026563,2.04479687 10.6751719,2.04479687 C11.2079844,2.04479687 11.7252031,2.15979687 12.2124687,2.38659375 C12.6775625,2.6030625 13.0947187,2.9114375 13.4523594,3.303125 C14.1782969,4.09817187 14.5780781,5.14595312 14.5780781,6.25345313 C14.5780781,7.55798438 14.0041875,8.4881875 13.5851406,9.16740625 C13.5560937,9.2145 13.5275,9.26082812 13.4995937,9.30648437 L13.4970781,9.31054687 C12.1499219,11.4741406 8.76260938,14.0665 8.729,14.0917031 L8.71610937,14.101375 L8.70270312,14.1103125 C8.48903125,14.2527031 8.25917187,14.3219219 8,14.3219219 Z M7.24703281,14.0760172 L7.25773281,14.0867172 L7.24703281,14.0760172 Z M7.96125,13.1614531 C7.97017187,13.1649219 7.97996875,13.1656875 8,13.1656875 C8.02726562,13.1656875 8.03551562,13.1642813 8.04846875,13.1565781 C8.27629687,12.9806406 11.3358125,10.5922187 12.5141719,8.70164062 C12.5425469,8.65523437 12.5715937,8.60814063 12.6011094,8.56029688 C12.9858125,7.93675 13.4218281,7.23001562 13.4218281,6.25345312 C13.4218281,4.57034375 12.1896875,3.20104687 10.6751719,3.20104687 C9.86529687,3.20104687 9.08285937,3.6120625 8.58217187,4.30051562 L8.5658125,4.32301562 L8.03065625,4.92710937 L7.4818125,4.33435937 L7.4660625,4.31396875 C6.91954687,3.6066875 6.13909375,3.20104687 5.32478125,3.20104687 C3.81028125,3.20104687 2.57815625,4.57035937 2.57815625,6.25345312 C2.57815625,7.25573437 3.02101562,8.00389062 3.474625,8.68429687 L3.48171875,8.69520312 C4.17798437,9.79229687 5.62942187,11.249 7.79573437,13.0248437 C7.87826562,13.0925 7.92792187,13.1332656 7.96125,13.1614531 L7.96125,13.1614531 Z" id="形状" fill="#000000"></path>
                    </g>
                </g>
            </g>
        </g>
    </g>
</svg>