<?xml version="1.0" encoding="UTF-8"?>
<svg width="16px" height="16px" viewBox="0 0 16 16" version="1.1" xmlns="http://www.w3.org/2000/svg" xmlns:xlink="http://www.w3.org/1999/xlink">
    <title>表情</title>
    <defs>
        <filter color-interpolation-filters="auto" id="filter-1">
            <feColorMatrix in="SourceGraphic" type="matrix" values="0 0 0 0 0.733333 0 0 0 0 0.733333 0 0 0 0 0.737255 0 0 0 1.000000 0"></feColorMatrix>
        </filter>
    </defs>
    <g id="页面-1" stroke="none" stroke-width="1" fill="none" fill-rule="evenodd">
        <g id="表情" transform="translate(-647.000000, -487.000000)" filter="url(#filter-1)">
            <g transform="translate(647.000000, 487.000000)">
                <path d="M7.9996362,1.4117647 C5.6458864,1.4117647 3.47093189,2.66747521 2.29405699,4.70588232 C1.11718208,6.74428942 1.11718208,9.25571056 2.29405699,11.2941177 C3.47093189,13.3325248 5.6458864,14.5882353 7.9996362,14.5882353 C11.6382181,14.5882353 14.5878715,11.6385819 14.5878715,7.99999999 C14.5878715,4.36141811 11.6382181,1.4117647 7.9996362,1.4117647 L7.9996362,1.4117647 Z M7.9996362,4.70212104e-16 C10.8578476,4.70212104e-16 13.4989994,1.52463298 14.9281426,3.99989497 C16.3572858,6.47515696 16.3572858,9.52484302 14.9281426,12.000105 C13.4989994,14.475367 10.8578476,16 7.9996362,16 C3.58150028,15.9997991 2.93882565e-16,12.4181359 2.93882565e-16,8 C2.93882565e-16,3.58186407 3.58150028,0.000200916648 7.9996362,4.70212104e-16 Z M4.36951856,5.71388234 C4.36951856,5.08284828 4.88107274,4.57129411 5.51210679,4.57129411 C6.14314085,4.57129411 6.65469502,5.08284828 6.65469502,5.71388234 C6.65469502,6.34491638 6.14314084,6.85647054 5.51210679,6.85647054 C4.88107275,6.85647054 4.36951856,6.34491638 4.36951856,5.71388234 L4.36951856,5.71388234 Z M9.34363619,5.71388234 C9.34363619,5.08258839 9.85540106,4.57082352 10.486695,4.57082352 C11.117989,4.57082352 11.6297538,5.08258839 11.6297538,5.71388234 C11.6297538,6.3451763 11.117989,6.85694116 10.486695,6.85694116 C9.85540106,6.85694116 9.34363619,6.3451763 9.34363619,5.71388234 Z M4.09751856,8.47058823 L11.9601068,8.47058823 C11.9601068,10.2710588 10.3045774,12.4329412 7.9836362,12.4329412 C5.6636362,12.4329412 4.09751856,10.2710588 4.09751856,8.47058823 Z" id="形状" fill="#333333" fill-rule="nonzero"></path>
            </g>
        </g>
    </g>
</svg>