<?xml version="1.0" encoding="UTF-8"?>
<svg width="18px" height="18px" viewBox="0 0 18 18" version="1.1" xmlns="http://www.w3.org/2000/svg" xmlns:xlink="http://www.w3.org/1999/xlink">
    <title>home-fill备份</title>
    <g id="页面-1" stroke="none" stroke-width="1" fill="none" fill-rule="evenodd" opacity="0.6">
        <g id="推荐" transform="translate(-45.000000, -93.000000)" fill-rule="nonzero">
            <g id="编组" transform="translate(45.000000, 92.000000)">
                <g id="home-fill备份" transform="translate(0.000000, 1.000000)">
                    <rect id="矩形" fill="#000000" opacity="0" x="0" y="0" width="18" height="18"></rect>
                    <path d="M9.39726562,1.64179688 C9.17753906,1.42207031 8.82246094,1.42207031 8.60273437,1.64179688 L1.36230469,8.87695313 C1.15136719,9.08789062 1.03183594,9.37441406 1.03183594,9.67324219 C1.03183594,10.29375 1.53632812,10.7982422 2.15683594,10.7982422 L2.91972656,10.7982422 L2.91972656,15.9609375 C2.91972656,16.2720703 3.17109375,16.5234375 3.48222656,16.5234375 L7.875,16.5234375 L7.875,12.5859375 L9.84375,12.5859375 L9.84375,16.5234375 L14.5177734,16.5234375 C14.8289062,16.5234375 15.0802734,16.2720703 15.0802734,15.9609375 L15.0802734,10.7982422 L15.8431641,10.7982422 C16.1419922,10.7982422 16.4285156,10.6804687 16.6394531,10.4677734 C17.0771484,10.0283203 17.0771484,9.31640625 16.6376953,8.87695313 L9.39726562,1.64179688 Z" id="路径" fill="#333333"></path>
                </g>
            </g>
        </g>
    </g>
</svg>