<?xml version="1.0" encoding="UTF-8"?>
<svg width="18px" height="16px" viewBox="0 0 18 16" version="1.1" xmlns="http://www.w3.org/2000/svg" xmlns:xlink="http://www.w3.org/1999/xlink">
    <title>编组 5</title>
    <g id="页面-1" stroke="none" stroke-width="1" fill="none" fill-rule="evenodd">
        <g id="组件" transform="translate(-312.000000, -190.000000)" fill="#FFFFFF">
            <g id="编组-5" transform="translate(312.941957, 190.000000)">
                <path d="M12.1681685,1.81920324 L12.1681685,0.444694124 C12.1681685,0.202133693 12.3637892,0 12.598534,0 C12.6728699,0 12.7472058,0.0202133693 12.8137168,0.0606401078 L16.7848172,2.42560431 L16.7848172,2.41751897 C16.9178393,2.49837244 17,2.6439087 17,2.80157298 C17,2.95923726 16.9178393,3.10477352 16.7848172,3.185627 L12.8137168,5.5505912 C12.7472058,5.59101794 12.6728699,5.61123131 12.598534,5.61123131 C12.3637892,5.61123131 12.1681685,5.41314029 12.1681685,5.16653719 L12.1681685,3.84458284 L12.1681685,1.82324591 L12.1681685,1.81920324 Z" id="路径" fill-rule="nonzero"></path>
                <path d="M12.1681685,11.5384226 L12.1681685,10.1639135 C12.1681685,9.92135302 12.3637892,9.71921933 12.598534,9.71921933 C12.6728699,9.71921933 12.7472058,9.7394327 12.8137168,9.77985944 L16.7848172,12.1448236 L16.7848172,12.1367383 C16.9178393,12.2175918 17,12.363128 17,12.5207923 C17,12.6784566 16.9178393,12.8239929 16.7848172,12.9048463 L12.8137168,15.2698105 C12.7472058,15.3102373 12.6728699,15.3304506 12.598534,15.3304506 C12.3637892,15.3304506 12.1681685,15.1323596 12.1681685,14.8857565 L12.1681685,13.5638022 L12.1681685,11.5424652 L12.1681685,11.5384226 Z" id="路径备份" fill-rule="nonzero"></path>
                <path d="M13.1381115,12.1407691 C13.0989163,12.1409694 12.2376357,12.1404174 12.1949321,12.1389425 C11.1599139,12.1031938 9.12127828,11.5252431 7.38290087,7.97433026 C6.79411815,6.77130268 6.09937089,5.75178778 5.32050625,4.94632853 C4.67406807,4.27858875 3.96526231,3.75009772 3.21445627,3.37971645 C1.88727093,2.72376481 0.809341738,2.74251964 0.510257717,2.76284622 C0.236058421,2.78325776 0.0273616406,3.04153486 0.0460738636,3.34063505 C0.0647082001,3.63965027 0.30148305,3.86732069 0.575682346,3.84699411 C0.747052038,3.83505729 1.65984245,3.80277265 2.80319627,4.36862466 C4.27840484,5.09757782 5.52458826,6.48413932 6.50439998,8.48576566 C7.13685753,9.77880791 7.87052855,10.8289507 8.68050883,11.6054388 C9.34565923,12.2426356 10.063753,12.6980614 10.8161557,12.9631353 C11.363035,13.1544857 11.8513595,13.2164745 12.2362285,13.2225778 C12.2580581,13.2229239 12.2795549,13.2230903 12.3007106,13.2230903 L13.1256302,13.2230903 L13.1381115,12.1407691 Z" id="Fill-1" stroke="#FFFFFF" stroke-width="1.2"></path>
                <path d="M5.51512134,10.2232286 C5.15375532,9.98654453 4.9136685,10.284656 4.87212579,10.350407 C4.07232579,11.6162774 3.16298451,12.4402993 2.17020627,12.8036349 C1.3695371,13.0961751 0.846653224,13.0168358 0.68111519,12.9774699 C0.429928393,12.9158888 0.158801808,13.0764582 0.10706926,13.372043 C0.0552612108,13.6658862 0.281788479,13.971483 0.534390344,14.0330666 C0.653486101,14.0621574 0.776154014,14.0873587 1.10270812,14.0879323 C2.11803124,14.0896935 3.97554242,13.6537808 5.67414601,10.9158522 C5.70195763,10.8710235 5.87648736,10.4599127 5.51512134,10.2232286 Z" id="路径" stroke="#FFFFFF" stroke-width="1.2" transform="translate(2.920126, 12.110637) rotate(3.000000) translate(-2.920126, -12.110637) "></path>
                <path d="M8.53048511,6.29292809 C8.6175764,6.37954438 8.72351541,6.42202417 8.82943627,6.42036746 C8.9615335,6.42036746 9.09212509,6.35407775 9.1849487,6.22663838 C10.0556802,5.02019118 11.0599784,4.21307522 12.1701611,3.82910042 C12.5155331,3.71013578 12.9029959,3.67610947 13.1381115,3.65064283 C13.1555541,3.42390619 13.1555541,3.05550571 13.1381115,2.54544142 C12.856575,2.57430643 12.3573683,2.63966637 11.959698,2.77218207 C11.3850152,2.96416947 10.8233752,3.25985003 10.2922834,3.65064283 C9.63774723,4.13327694 9.025369,4.76531246 8.47535692,5.52655025 C8.30989979,5.75761905 8.33455237,6.09919902 8.53048511,6.29292809 Z" id="路径" stroke="#FFFFFF" stroke-width="1.2" transform="translate(10.758473, 4.482928) rotate(6.000000) translate(-10.758473, -4.482928) "></path>
            </g>
        </g>
    </g>
</svg>