<?xml version="1.0" encoding="UTF-8"?>
<svg width="17px" height="17px" viewBox="0 0 17 17" version="1.1" xmlns="http://www.w3.org/2000/svg" xmlns:xlink="http://www.w3.org/1999/xlink">
    <title>编组 3</title>
    <g id="页面-1" stroke="none" stroke-width="1" fill="none" fill-rule="evenodd">
        <g id="组件" transform="translate(-281.000000, -190.000000)" fill="#FFFFFF" fill-rule="nonzero">
            <g id="编组-3" transform="translate(281.000000, 190.000000)">
                <g id="循环播放-(1)备份-2">
                    <path d="M5.3125,12.5375 L13.8125,12.5375 C14.39475,12.5375 14.875,12.05725 14.875,11.475 L14.875,9.35 C14.875,8.76775 15.35525,8.2875 15.9375,8.2875 C16.51975,8.2875 17,8.76775 17,9.35 L17,11.475 C17,13.22175 15.55925,14.6625 13.8125,14.6625 L5.3125,14.6625 L5.3125,16.099 C5.3125,16.354 5.1,16.5665 4.845,16.5665 C4.7345,16.5665 4.62825,16.52825 4.54325,16.456 L0.2295,13.991 L0.34425,14.01225 C0.1955,13.9315 0.102,13.77425 0.102,13.60425 C0.102,13.43425 0.1955,13.277 0.34425,13.19625 L4.59425,10.69725 C4.6665,10.6505 4.7515,10.62925 4.8365,10.62925 C5.0915,10.62925 5.304,10.84175 5.304,11.09675 L5.304,12.5375 L5.3125,12.5375 Z M11.6875,1.9125 L11.6875,0.4675 C11.6875,0.2125 11.9,0 12.155,0 C12.23575,0 12.3165,0.02125 12.38875,0.06375 L16.7025,2.55 L16.7025,2.5415 C16.847,2.6265 16.93625,2.7795 16.93625,2.94525 C16.93625,3.111 16.847,3.264 16.7025,3.349 L12.38875,5.83525 C12.3165,5.87775 12.23575,5.899 12.155,5.899 C11.9,5.899 11.6875,5.69075 11.6875,5.4315 L11.6875,4.04175 L3.1875,4.04175 C2.60525,4.04175 2.125,4.522 2.125,5.10425 L2.125,7.09325 C2.125,7.6755 1.64475,8.15575 1.0625,8.15575 C0.48025,8.15575 0,7.6755 0,7.09325 L0,5.10425 C0,3.3575 1.44075,1.91675 3.1875,1.91675 L11.6875,1.91675 L11.6875,1.9125 Z" id="形状"></path>
                </g>
                <polygon id="路径" points="8 6 9.3546885 6 9.3546885 10.6074085 8 10.6074085"></polygon>
            </g>
        </g>
    </g>
</svg>