<?xml version="1.0" encoding="UTF-8"?>
<svg width="19px" height="19px" viewBox="0 0 19 19" version="1.1" xmlns="http://www.w3.org/2000/svg" xmlns:xlink="http://www.w3.org/1999/xlink">
    <title>onlineRecharge</title>
    <g id="页面-1" stroke="none" stroke-width="1" fill="none" fill-rule="evenodd">
        <g id="推荐" transform="translate(-968.000000, -28.000000)" fill="#000000" fill-rule="nonzero">
            <g id="编组-15" transform="translate(968.000000, 25.000000)">
                <g id="onlineRecharge" transform="translate(0.000000, 3.000000)">
                    <rect id="矩形" opacity="0" x="0" y="0" width="19" height="19"></rect>
                    <path d="M6.86280371,6.50560742 C6.764,6.39919629 6.66519629,6.30419629 6.574,6.20160742 C6.12180371,5.7 5.86339258,5.11480371 5.77980371,4.44219629 C5.681,3.667 6.23580371,3.097 6.90458887,2.96019629 C7.258,2.888 7.6,2.91839258 7.93060742,3.07041113 C7.98,3.09319629 8.00660742,3.08560742 8.04460742,3.04758887 C8.854,2.29519629 10.146,2.30280371 10.9516074,3.06280371 C10.9933926,3.10460742 11.0237852,3.08939258 11.0656074,3.07419629 C11.6888037,2.81580371 12.2816074,2.86519629 12.806,3.30980371 C13.1936074,3.63660742 13.3228037,4.066 13.186,4.56380371 C13.129,4.77660742 13.0871963,4.997 13.0112148,5.206 C12.8478037,5.662 12.5703926,6.04960742 12.2207852,6.384 C12.1866074,6.41439258 12.1523926,6.44860742 12.1181963,6.48280371 C12.1143926,6.48660742 12.1143926,6.49419629 12.1105889,6.49419629 C12.312,6.60060742 12.5171963,6.69560742 12.7148037,6.80960742 C14.4171963,7.80519629 15.5078037,9.272 16.0131963,11.1681963 C16.2791963,12.1676074 16.3134111,13.1784111 16.1538037,14.1968037 C16.0853926,14.6376074 15.9676074,15.0556074 15.713,15.4241963 C15.219,16.15 14.535,16.549 13.6458037,16.549 C10.8831963,16.5528167 8.12058887,16.5451963 5.358,16.5528167 C4.18760742,16.5566074 3.211,15.7243926 2.926,14.6148037 C2.74360742,13.908 2.70180371,13.1974111 2.755,12.4791963 C2.93739258,9.88 4.49160742,7.59619629 6.79060742,6.54360742 C6.81719629,6.53219629 6.84,6.517 6.86278516,6.50560742 L6.86280371,6.50560742 Z M8.322,13.5166074 L8.322,14.8808037 L10.6856074,14.8808037 L10.6856074,13.5166074 L12.844,13.5166074 L12.844,12.4678037 L10.6893926,12.4678037 L10.6893926,11.951 L12.844,11.951 L12.844,10.887 L11.0161963,10.887 C11.039,10.8641963 11.0466074,10.8528037 11.058,10.8413926 C11.2632148,10.6551963 11.4646074,10.469 11.666,10.2828037 C11.8598037,10.1004111 12.0536074,9.918 12.2473926,9.73939258 C12.3386074,9.65580371 12.4336074,9.576 12.5247852,9.49239258 C12.6311963,9.39360742 12.7376074,9.28719629 12.8591963,9.177 C12.8288037,9.177 12.8173926,9.17319629 12.806,9.17319629 L10.45,9.17319629 C10.4233926,9.17319629 10.3891963,9.18460742 10.3702148,9.20360742 L9.98260742,9.52280371 C9.823,9.65580371 9.66719629,9.79258887 9.50380371,9.92939258 C9.39739258,9.83819629 9.291,9.75080371 9.18839258,9.65960742 C9.02121484,9.51519629 8.85780371,9.37080371 8.69060742,9.23019629 C8.65260742,9.19980371 8.59939258,9.17319629 8.55380371,9.17319629 C7.77858887,9.16939258 7.00339258,9.16939258 6.232,9.17319629 C6.213,9.17319629 6.19019629,9.177 6.16360742,9.18080371 L6.194,9.21119629 C6.39594817,9.39415447 6.59608874,9.57909802 6.79439258,9.766 C7.00339258,9.95980371 7.21239258,10.1612148 7.42139258,10.3588037 C7.52019629,10.45 7.62660742,10.5298037 7.714,10.6248037 C7.80139258,10.716 7.87360742,10.8186074 7.93060742,10.8945889 L6.156,10.8945889 L6.156,11.9624111 L8.31060742,11.9624111 L8.31060742,12.4791963 L6.156,12.4791963 L6.156,13.5241963 C6.87419629,13.5165889 7.58860742,13.5165889 8.322,13.5165889 L8.322,13.5166074 Z" id="形状"></path>
                </g>
            </g>
        </g>
    </g>
</svg>