<?xml version="1.0" encoding="UTF-8"?>
<svg width="16px" height="16px" viewBox="0 0 16 16" version="1.1" xmlns="http://www.w3.org/2000/svg" xmlns:xlink="http://www.w3.org/1999/xlink">
    <title>more</title>
    <defs>
        <filter color-interpolation-filters="auto" id="filter-1">
            <feColorMatrix in="SourceGraphic" type="matrix" values="0 0 0 0 0.600000 0 0 0 0 0.600000 0 0 0 0 0.600000 0 0 0 1.000000 0"></feColorMatrix>
        </filter>
    </defs>
    <g id="页面-1" stroke="none" stroke-width="1" fill="none" fill-rule="evenodd">
        <g id="推荐评论2" transform="translate(-1852.000000, -170.000000)">
            <g id="more" transform="translate(1453.000000, 163.000000)" filter="url(#filter-1)">
                <g transform="translate(399.000000, 7.000000)">
                    <rect id="矩形" fill="#000000" fill-rule="nonzero" opacity="0" x="0" y="0" width="16" height="16"></rect>
                    <path d="M4.5,7.1385 C4.34863794,7.048638 4.17602549,7.00082435 4,7 C3.44771525,7 3,7.44771525 3,8 C3,8.55228475 3.44771525,9 4,9 C4.183,9 4.3525,8.947 4.5,8.861 C4.7975,8.688 5,8.369 5,8 C5,7.6305 4.7975,7.3115 4.5,7.1385 M8.5,7.1385 C8.34863794,7.048638 8.17602549,7.00082435 8,7 C7.817,7 7.6475,7.0525 7.5,7.1385 C7.2025,7.3115 7,7.6305 7,8 C7,8.369 7.2025,8.688 7.5,8.861 C7.6475,8.947 7.817,9 8,9 C8.183,9 8.3525,8.947 8.5,8.861 C8.7975,8.688 9,8.369 9,8 C9,7.6305 8.7975,7.3115 8.5,7.1385 M12,7 C11.817,7 11.6475,7.053 11.5,7.1385 C11.2025,7.312 11,7.631 11,8 C11,8.369 11.2025,8.688 11.5,8.8615 C11.6475,8.947 11.817,9 12,9 C12.5522847,9 13,8.55228475 13,8 C13,7.44771525 12.5522847,7 12,7" id="形状" fill="#000000" fill-rule="nonzero"></path>
                </g>
            </g>
        </g>
    </g>
</svg>