<?xml version="1.0" encoding="UTF-8"?>
<svg width="14px" height="14px" viewBox="0 0 14 14" version="1.1" xmlns="http://www.w3.org/2000/svg" xmlns:xlink="http://www.w3.org/1999/xlink">
    <title>编组 3备份 3</title>
    <g id="页面-1" stroke="none" stroke-width="1" fill="none" fill-rule="evenodd">
        <g id="发布原创音乐" transform="translate(-1141.000000, -185.000000)" fill-rule="nonzero">
            <g id="编组-3备份-3" transform="translate(1141.000000, 185.000000)">
                <path d="M7,14 C3.13400675,14 0,10.8659932 0,7 C0,3.13400675 3.13400675,0 7,0 C10.8659932,0 14,3.13400675 14,7 C14,10.8659932 10.8659932,14 7,14 Z" id="路径" fill="#BBBBBB"></path>
                <polygon id="路径" fill="#FFFFFF" points="6.258875 9.3625 8.043875 9.3625 8.043875 11.11425 6.258875 11.11425"></polygon>
                <path d="M4.375,5.43375 C4.382875,5.02425 4.452875,4.648875 4.585,4.307625 C4.718,3.966375 4.9035,3.670625 5.14325,3.420375 C5.38688649,3.16662684 5.68111642,2.96689629 6.006875,2.834125 C6.36696235,2.6899096 6.75215624,2.61881976 7.14,2.625 C7.678125,2.625 8.127875,2.6985 8.4875,2.846375 C8.848,2.995125 9.1385,3.178875 9.358125,3.3985 C9.57775,3.618125 9.73525,3.85525 9.830625,4.109875 C9.925125,4.363625 9.972375,4.599875 9.972375,4.820375 C9.972375,5.184375 9.925125,5.483625 9.82975,5.719 C9.66734576,6.13731076 9.38174656,6.49644564 9.01075,6.748875 C8.840125,6.866125 8.679125,6.983375 8.52775,7.1015 C8.37680695,7.21839596 8.24127096,7.35393195 8.124375,7.504875 C8.00625,7.65625 7.931875,7.846125 7.902125,8.073625 L7.902125,8.505875 L6.365625,8.505875 L6.365625,7.994 C6.388375,7.667625 6.4505,7.394625 6.552875,7.175 C6.656125,6.955375 6.775125,6.76725 6.911625,6.612375 C7.048125,6.456625 7.191625,6.321875 7.343875,6.208125 C7.49525,6.094375 7.636125,5.980625 7.76475,5.866875 C7.893375,5.753125 7.9975,5.628 8.077125,5.4915 C8.157625,5.355 8.1935,5.184375 8.185625,4.979625 C8.185625,4.6305 8.10075,4.37325 7.92925,4.206125 C7.758625,4.039875 7.522375,3.955875 7.21875,3.955875 C7.014,3.955875 6.838125,3.99525 6.69025,4.074875 C6.54557663,4.15131708 6.4206618,4.26035545 6.325375,4.393375 C6.22687844,4.53468287 6.15565599,4.69315282 6.115375,4.860625 C6.06874472,5.04835759 6.0458162,5.24119233 6.047125,5.434625 L4.375,5.434625 L4.375,5.43375 Z" id="路径" fill="#FFFFFF"></path>
            </g>
        </g>
    </g>
</svg>