<?xml version="1.0" encoding="UTF-8"?>
<svg width="18px" height="18px" viewBox="0 0 18 18" version="1.1" xmlns="http://www.w3.org/2000/svg" xmlns:xlink="http://www.w3.org/1999/xlink">
    <title>编组 8</title>
    <g id="页面-1" stroke="none" stroke-width="1" fill="none" fill-rule="evenodd" opacity="0.6">
        <g id="推荐" transform="translate(-45.000000, -273.000000)" fill-rule="nonzero">
            <g id="编组-9" transform="translate(45.000000, 272.000000)">
                <g id="编组-8" transform="translate(0.000000, 1.000000)">
                    <g id="编组-7" fill="#000000" opacity="0">
                        <rect id="矩形" x="0" y="0" width="18" height="18"></rect>
                    </g>
                    <g id="排行榜-(1)" transform="translate(2.000000, 2.000000)" fill="#333333">
                        <path d="M1.54707366,4.12504509 C2.40203542,4.12504509 3.09414732,4.81715699 3.09414732,5.67211875 L3.09414732,12.8884031 C3.09414732,13.7433649 2.40203542,14.4354768 1.54707366,14.4354768 C0.692111901,14.4354768 0,13.7433649 0,12.8884031 L0,5.66921072 C0.0014540166,4.81715699 0.693565917,4.12504509 1.54707366,4.12504509 Z M11.8560513,6.18538661 C12.7110131,6.18538661 13.403125,6.87749851 13.403125,7.73246027 L13.403125,12.8869491 C13.403125,13.7419109 12.7110131,14.4340228 11.8560513,14.4340228 C11.0010896,14.4340228 10.3089777,13.7419109 10.3089777,12.8869491 L10.3089777,7.73246027 C10.3104317,6.87895252 11.0025436,6.18538661 11.8560513,6.18538661 Z M6.70301652,0 C7.55797828,0 8.25009018,0.692111901 8.25009018,1.54707366 L8.25009018,12.8869491 C8.25009018,13.7419109 7.55797828,14.4340228 6.70301652,14.4340228 C5.84805476,14.4340228 5.15594286,13.7419109 5.15594286,12.8869491 L5.15594286,1.54707366 C5.15594286,1.13704098 5.32024673,0.744456498 5.60814202,0.453653179 C5.89894534,0.162849859 6.29152982,0 6.70301652,0 Z" id="形状"></path>
                    </g>
                </g>
            </g>
        </g>
    </g>
</svg>