<?xml version="1.0" encoding="UTF-8"?>
<svg width="18px" height="18px" viewBox="0 0 18 18" version="1.1" xmlns="http://www.w3.org/2000/svg" xmlns:xlink="http://www.w3.org/1999/xlink">
    <title>搜索</title>
    <g id="页面-1" stroke="none" stroke-width="1" fill="none" fill-rule="evenodd">
        <g id="推荐" transform="translate(-214.000000, -27.000000)" fill="#A2A4A8" fill-rule="nonzero">
            <g id="搜索" transform="translate(214.000000, 27.000000)">
                <path d="M17.7493618,16.4995077 L14.3351126,13.0052931 C15.3635817,11.6034613 15.9187808,9.89715766 15.9169181,8.14390098 C15.9169181,3.64604408 12.3522859,0 7.95637039,0 C3.56323974,0.00213844505 0,3.6474697 0,8.14603943 C0,12.6438963 3.56254351,16.2899404 7.95845903,16.2899404 C9.95381759,16.2899404 11.7716407,15.5336446 13.1682525,14.2940609 L16.5344628,17.7412299 C16.6952126,17.9068608 16.913852,18 17.1419123,18 C17.3699725,18 17.588612,17.9068608 17.7493618,17.7412299 C18.0835461,17.3969407 18.0835461,16.8409457 17.7493618,16.4995077 Z M7.95845903,14.5357049 C4.51427245,14.5357049 1.71130193,11.6701923 1.71130193,8.14390098 C1.71130193,4.61760969 4.51427247,1.75423547 7.95845903,1.75423547 C11.4026456,1.75423547 14.2056161,4.62188656 14.2056161,8.14603943 C14.2056161,11.6701923 11.4026456,14.5357049 7.95845903,14.5357049 Z" id="形状"></path>
            </g>
        </g>
    </g>
</svg>