<?xml version="1.0" encoding="UTF-8"?>
<svg width="14px" height="14px" viewBox="0 0 14 14" version="1.1" xmlns="http://www.w3.org/2000/svg" xmlns:xlink="http://www.w3.org/1999/xlink">
    <title>编组 2</title>
    <defs>
        <filter color-interpolation-filters="auto" id="filter-1">
            <feColorMatrix in="SourceGraphic" type="matrix" values="0 0 0 0 0.400000 0 0 0 0 0.400000 0 0 0 0 0.400000 0 0 0 1.000000 0"></feColorMatrix>
        </filter>
    </defs>
    <g id="页面-1" stroke="none" stroke-width="1" fill="none" fill-rule="evenodd">
        <g id="作品管理" transform="translate(-665.000000, -239.000000)">
            <g id="编组-2" transform="translate(598.000000, 214.000000)" filter="url(#filter-1)">
                <g transform="translate(67.000000, 25.000000)">
                    <rect id="矩形" x="0" y="0" width="14" height="14"></rect>
                    <g id="sort1" transform="translate(3.000000, 1.000000)" fill="#000000" fill-rule="nonzero">
                        <path d="M3.62625575,0.68898387 C3.62625575,0.313088626 3.3221395,0.0089723739 2.94624425,0.0089723739 C2.57034901,0.0089723739 2.26623276,0.313088626 2.26623276,0.68898387 L2.26623276,8.92656757 L1.16121408,7.82154889 C0.894876239,7.55521106 0.464202292,7.55521106 0.199753377,7.82154889 C-0.066584459,8.08788673 -0.066584459,8.51856068 0.199753377,8.78300959 L2.38145693,10.9647131 C2.50423678,11.1460495 2.71012915,11.2669405 2.94624425,11.2669405 C3.13702525,11.2669405 3.30891705,11.1894947 3.4316969,11.062937 L3.43547474,11.0591592 C3.59603301,10.8986009 3.66025632,10.6775972 3.62625575,10.467927 L3.62625575,0.68898387 Z M8.80000988,2.47401405 L6.52574921,0.199753377 C6.25941137,-0.066584459 5.82873743,-0.066584459 5.56428851,0.199753377 C5.43773082,0.326311072 5.37161859,0.488758263 5.36595182,0.653094374 C5.36595182,0.664427899 5.3640629,0.677650345 5.3640629,0.68898387 L5.3640629,10.586929 C5.3640629,10.9628242 5.66817916,11.2669405 6.0440744,11.2669405 C6.41996964,11.2669405 6.72408589,10.9628242 6.72408589,10.586929 L6.72408589,2.32101146 L7.83854918,3.43547474 C7.97077364,3.5676992 8.14455435,3.63381143 8.32022399,3.63381143 C8.49589363,3.63381143 8.66778542,3.5676992 8.8018988,3.43547474 C9.06634771,3.17102583 9.06634771,2.74035188 8.80000988,2.47401405 Z" id="形状"></path>
                    </g>
                </g>
            </g>
        </g>
    </g>
</svg>