<?xml version="1.0" encoding="UTF-8"?>
<svg width="18px" height="18px" viewBox="0 0 18 18" version="1.1" xmlns="http://www.w3.org/2000/svg" xmlns:xlink="http://www.w3.org/1999/xlink">
    <title>like-fill</title>
    <g id="页面-1" stroke="none" stroke-width="1" fill="none" fill-rule="evenodd">
        <g id="推荐" transform="translate(-45.000000, -153.000000)" fill="#000000" fill-rule="nonzero">
            <g id="编组-6" transform="translate(45.000000, 152.000000)">
                <g id="like-fill" transform="translate(0.000000, 1.000000)">
                    <rect id="矩形" opacity="0" x="0" y="0" width="18" height="18"></rect>
                    <path d="M15.5724609,9.38144531 C15.8677734,8.99121094 16.03125,8.51308594 16.03125,8.015625 C16.03125,7.22636719 15.5900391,6.47929688 14.8798828,6.06269531 C14.69706,5.95546012 14.4889049,5.89902157 14.2769531,5.89921875 L10.0617188,5.89921875 L10.1671875,3.73886719 C10.1917969,3.21679688 10.0072266,2.72109375 9.64863281,2.34316406 C9.28828125,1.96523438 8.803125,1.75605469 8.27929688,1.75605469 C7.36523438,1.75605469 6.55664063,2.37128906 6.3140625,3.25195313 L4.80410156,8.71875 L4.79882812,8.71875 L4.79882812,16.2421875 L13.1009766,16.2421875 C13.2626953,16.2421875 13.4208984,16.2105469 13.5667969,16.1472656 C14.4035156,15.7904297 14.9431641,14.9730469 14.9431641,14.0660156 C14.9431641,13.8445313 14.9115234,13.6265625 14.8482422,13.415625 C15.1435547,13.0253906 15.3070312,12.5472656 15.3070312,12.0498047 C15.3070312,11.8283203 15.2753906,11.6103516 15.2121094,11.3994141 C15.5074219,11.0091797 15.6708984,10.5310547 15.6708984,10.0335937 C15.6673828,9.81210938 15.6357422,9.59238281 15.5724609,9.38144531 Z M1.96875,9.28125 L1.96875,15.6796875 C1.96875,15.9908203 2.22011719,16.2421875 2.53125,16.2421875 L3.67382812,16.2421875 L3.67382812,8.71875 L2.53125,8.71875 C2.22011719,8.71875 1.96875,8.97011719 1.96875,9.28125 Z" id="形状"></path>
                </g>
            </g>
        </g>
    </g>
</svg>