<?xml version="1.0" encoding="UTF-8"?>
<svg width="14px" height="14px" viewBox="0 0 14 14" version="1.1" xmlns="http://www.w3.org/2000/svg" xmlns:xlink="http://www.w3.org/1999/xlink">
    <title>切片</title>
    <g id="页面-1" stroke="none" stroke-width="1" fill="none" fill-rule="evenodd">
        <g id="发布原创音乐" transform="translate(-615.000000, -185.000000)" fill="#000000">
            <g id="编组" transform="translate(615.000000, 181.000000)">
                <g id="前置-Icon" transform="translate(0.000000, 4.000000)">
                    <rect id="矩形" fill-rule="nonzero" opacity="0" x="0" y="0" width="14" height="14"></rect>
                    <path d="M12.2130859,4.00996094 L9.99003906,1.78691406 C9.8875,1.684375 9.76171875,1.60917969 9.625,1.56816406 L9.625,1.53125 L1.96875,1.53125 C1.72675781,1.53125 1.53125,1.72675781 1.53125,1.96875 L1.53125,12.03125 C1.53125,12.2732422 1.72675781,12.46875 1.96875,12.46875 L12.03125,12.46875 C12.2732422,12.46875 12.46875,12.2732422 12.46875,12.03125 L12.46875,4.62792969 C12.46875,4.39550781 12.3771484,4.17402344 12.2130859,4.00996094 Z M5.25,2.515625 L8.75,2.515625 L8.75,3.9375 L5.25,3.9375 L5.25,2.515625 Z M11.484375,11.484375 L2.515625,11.484375 L2.515625,2.515625 L4.375,2.515625 L4.375,4.375 C4.375,4.61699219 4.57050781,4.8125 4.8125,4.8125 L9.1875,4.8125 C9.42949219,4.8125 9.625,4.61699219 9.625,4.375 L9.625,2.81367188 L11.484375,4.67304688 L11.484375,11.484375 Z M7,6.04296875 C5.91308594,6.04296875 5.03125,6.92480469 5.03125,8.01171875 C5.03125,9.09863281 5.91308594,9.98046875 7,9.98046875 C8.08691406,9.98046875 8.96875,9.09863281 8.96875,8.01171875 C8.96875,6.92480469 8.08691406,6.04296875 7,6.04296875 Z M7,9.10546875 C6.39570312,9.10546875 5.90625,8.61601563 5.90625,8.01171875 C5.90625,7.40742187 6.39570312,6.91796875 7,6.91796875 C7.60429688,6.91796875 8.09375,7.40742187 8.09375,8.01171875 C8.09375,8.61601563 7.60429688,9.10546875 7,9.10546875 Z" id="形状" fill-opacity="0.65"></path>
                </g>
            </g>
        </g>
    </g>
</svg>