<?xml version="1.0" encoding="UTF-8"?>
<svg width="17px" height="16px" viewBox="0 0 17 16" version="1.1" xmlns="http://www.w3.org/2000/svg" xmlns:xlink="http://www.w3.org/1999/xlink">
    <title>编组</title>
    <g id="页面-1" stroke="none" stroke-width="1" fill="none" fill-rule="evenodd">
        <g id="组件" transform="translate(-528.000000, -192.000000)" fill-rule="nonzero">
            <g id="编组" transform="translate(528.000000, 192.000000)">
                <g id="喇叭001备份">
                    <polygon id="路径" fill="#000000" points="9.94863265 5.9806952 9.93095957 5.9806952 9.95099738 6.47347372"></polygon>
                    <path d="M9.06951857,0.0641106213 C8.84129751,-0.0435183163 8.57077996,-0.013801376 8.37231381,0.139481645 C8.36319818,0.147100784 7.39778516,0.89537963 6.33259026,1.66212141 C4.47863173,2.99523973 3.93844741,3.21737611 3.8292992,3.25255102 L1.76626622,3.25255102 C1.22368906,3.25255102 0.747959791,3.47212743 0.424978017,3.87180579 C0.14698945,4.2149483 0,4.66502086 0,5.17302702 L0,10.8269438 C0,11.8857692 0.880869393,12.7474958 1.96456144,12.7474958 L2.7786057,12.7474958 C3.14206465,12.7474958 3.43726276,12.4594078 3.43726276,12.1039251 C3.43726276,11.749145 3.14206845,11.4614521 2.7786057,11.4614521 L1.96456144,11.461452 C1.60799998,11.461452 1.31737108,11.1762621 1.31737108,10.826959 L1.31737108,5.17302702 C1.31737108,4.93605118 1.37579843,4.53927461 1.76628521,4.53927461 L3.87311875,4.53927461 C4.21046522,4.53927461 4.72860874,4.40339103 6.98741874,2.7879808 C7.39088767,2.5002727 7.78359259,2.21038064 8.12421309,1.95636997 L8.12421309,13.9533752 C7.84984419,13.7269013 7.54386684,13.4783448 7.23115915,13.2312088 C5.16583208,11.5973242 5.0336973,11.4614369 4.68721999,11.4614369 L4.68721999,11.4614369 C4.32372308,11.4614369 4.02852495,11.7491488 4.02852495,12.1039099 C4.02852495,12.4408955 4.29453408,12.717004 4.63189953,12.7445636 C4.72790986,12.7775203 4.84835005,12.9931391 6.52080128,14.3251597 C7.47778235,15.0868385 8.33708189,15.8307418 8.34551383,15.8376963 C8.46852919,15.9445656 8.62448613,16 8.78366393,16 C8.87436819,16 8.96656893,15.9818789 9.05255587,15.9434641 C9.28934181,15.839113 9.44158415,15.6093803 9.44158415,15.3564255 L9.44158415,0.643169265 C9.44158415,0.39567628 9.29697999,0.170641883 9.06951857,0.0641106213 L9.06951857,0.0641106213 L9.06951857,0.0641106213 L9.06951857,0.0641106213 Z" id="形状" fill="#FFFFFF"></path>
                </g>
                <path d="M14.642083,7.84677049 L16.6748955,5.81395799 C16.6868241,5.80221066 16.693541,5.78616866 16.693541,5.76942674 C16.693541,5.75268483 16.6868241,5.73664283 16.6748955,5.72489549 L15.9686455,5.01864549 C15.9568982,5.00671688 15.9408562,5 15.9241142,5 C15.9073723,5 15.8913303,5.00671688 15.879583,5.01864549 L13.8467705,7.05145799 L11.813958,5.01864549 C11.8022107,5.00671688 11.7861687,5 11.7694267,5 C11.7526848,5 11.7366428,5.00671688 11.7248955,5.01864549 L11.0186455,5.72489549 C11.0067169,5.73664283 11,5.75268483 11,5.76942674 C11,5.78616866 11.0067169,5.80221066 11.0186455,5.81395799 L13.051458,7.84677049 L11.0186455,9.87958299 C11.0067169,9.89133033 11,9.90737233 11,9.92411424 C11,9.94085616 11.0067169,9.95689816 11.0186455,9.96864549 L11.7248955,10.6748955 C11.7366428,10.6868241 11.7526848,10.693541 11.7694267,10.693541 C11.7861687,10.693541 11.8022107,10.6868241 11.813958,10.6748955 L13.8467705,8.64208299 L15.879583,10.6748955 C15.8913303,10.6868241 15.9073723,10.693541 15.9241142,10.693541 C15.9408562,10.693541 15.9568982,10.6868241 15.9686455,10.6748955 L16.6748955,9.96864549 C16.6868241,9.95689816 16.693541,9.94085616 16.693541,9.92411424 C16.693541,9.90737233 16.6868241,9.89133033 16.6748955,9.87958299 L14.642083,7.84677049 Z" id="路径" fill="#FFFFFF"></path>
            </g>
        </g>
    </g>
</svg>