<?xml version="1.0" encoding="UTF-8"?>
<svg width="17px" height="16px" viewBox="0 0 17 16" version="1.1" xmlns="http://www.w3.org/2000/svg" xmlns:xlink="http://www.w3.org/1999/xlink">
    <title>喇叭001备份</title>
    <g id="页面-1" stroke="none" stroke-width="1" fill="none" fill-rule="evenodd">
        <g id="组件" transform="translate(-471.000000, -192.000000)" fill-rule="nonzero">
            <g id="喇叭001备份" transform="translate(471.000000, 192.000000)">
                <polygon id="路径" fill="#000000" points="9.94863265 5.9806952 9.93095957 5.9806952 9.95099738 6.47347372"></polygon>
                <path d="M9.06951857,0.0641106213 C8.84129751,-0.0435183163 8.57077996,-0.013801376 8.37231381,0.139481645 C8.36319818,0.147100784 7.39778516,0.89537963 6.33259026,1.66212141 C4.47863173,2.99523973 3.93844741,3.21737611 3.8292992,3.25255102 L1.76626622,3.25255102 C1.22368906,3.25255102 0.747959791,3.47212743 0.424978017,3.87180579 C0.14698945,4.2149483 1.08023872e-15,4.66502086 1.08023872e-15,5.17302702 L1.08023872e-15,10.8269438 C1.08023872e-15,11.8857692 0.880869393,12.7474958 1.96456144,12.7474958 L2.7786057,12.7474958 C3.14206465,12.7474958 3.43726276,12.4594078 3.43726276,12.1039251 C3.43726276,11.749145 3.14206845,11.4614521 2.7786057,11.4614521 L1.96456144,11.461452 C1.60799998,11.461452 1.31737108,11.1762621 1.31737108,10.826959 L1.31737108,5.17302702 C1.31737108,4.93605118 1.37579843,4.53927461 1.76628521,4.53927461 L3.87311875,4.53927461 C4.21046522,4.53927461 4.72860874,4.40339103 6.98741874,2.7879808 C7.39088767,2.5002727 7.78359259,2.21038064 8.12421309,1.95636997 L8.12421309,13.9533752 C7.84984419,13.7269013 7.54386684,13.4783448 7.23115915,13.2312088 C5.16583208,11.5973242 5.0336973,11.4614369 4.68721999,11.4614369 L4.68721999,11.4614369 C4.32372308,11.4614369 4.02852495,11.7491488 4.02852495,12.1039099 C4.02852495,12.4408955 4.29453408,12.717004 4.63189953,12.7445636 C4.72790986,12.7775203 4.84835005,12.9931391 6.52080128,14.3251597 C7.47778235,15.0868385 8.33708189,15.8307418 8.34551383,15.8376963 C8.46852919,15.9445656 8.62448613,16 8.78366393,16 C8.87436819,16 8.96656893,15.9818789 9.05255587,15.9434641 C9.28934181,15.839113 9.44158415,15.6093803 9.44158415,15.3564255 L9.44158415,0.643169265 C9.44158415,0.39567628 9.29697999,0.170641883 9.06951857,0.0641106213 L9.06951857,0.0641106213 L9.06951857,0.0641106213 L9.06951857,0.0641106213 Z M15.8425492,10.3754355 C16.297491,9.65977163 16.5373649,8.83214128 16.5373649,7.98314999 C16.5373649,7.13342185 16.2967884,6.30578771 15.8425492,5.59046564 C15.3991272,4.89329887 14.7720292,4.33020016 14.0293565,3.96349757 C13.7051479,3.80331706 13.3085955,3.92978116 13.1441116,4.24648834 C12.9796088,4.56393239 13.1094305,4.9505526 13.433829,5.11071793 C14.5359422,5.65536132 15.2199938,6.7558413 15.2199938,7.98316899 C15.2199938,9.21049668 14.5359422,10.3113413 13.4345696,10.855244 C13.1101483,11.0161082 12.9803494,11.4027854 13.1448333,11.7194736 C13.2609511,11.9430685 13.4922221,12.0724154 13.7326847,12.0724154 C13.8334542,12.0724154 13.9349604,12.049596 14.0302491,12.0032202 C14.7720292,11.6360998 15.399131,11.0733809 15.8425492,10.3754355 L15.8425492,10.3754355 L15.8425492,10.3754355 L15.8425492,10.3754355 Z M13.0162612,8.08505509 L13.0130593,8.08505509 C13.0131353,8.08007188 13.0132302,8.07510386 13.0132302,8.07008267 C13.0132302,7.5654113 12.8729674,7.09138363 12.6273127,6.67919788 C12.5453062,6.47391021 12.335719,6.32786652 12.0899884,6.32786652 C11.7728444,6.32786652 11.515685,6.57107519 11.515685,6.87112357 C11.515685,7.02509027 11.5835129,7.1639706 11.6922775,7.26282195 C11.8075825,7.51031495 11.8718097,7.78318738 11.8718097,8.07008267 C11.8718097,8.08014784 11.8714299,8.09013325 11.8712969,8.10014145 L11.8749166,8.10014145 C11.8750306,8.10512466 11.8751825,8.11009268 11.8751825,8.11509488 C11.8751825,8.40200917 11.8109553,8.6748778 11.6956503,8.92237081 C11.5868857,9.02122596 11.5190578,9.1601215 11.5190578,9.31405021 C11.5190578,9.6140796 11.7761982,9.85732623 12.0933611,9.85732623 C12.3390918,9.85732623 12.5486638,9.71128252 12.6306854,9.50601386 C12.8763401,9.09382811 13.016603,8.61980044 13.016603,8.11512907 C13.016603,8.10508667 13.0163751,8.09507847 13.0162612,8.08505509 Z" id="形状" fill="#FFFFFF"></path>
            </g>
        </g>
    </g>
</svg>