<?xml version="1.0" encoding="UTF-8"?>
<svg width="16px" height="16px" viewBox="0 0 16 16" version="1.1" xmlns="http://www.w3.org/2000/svg" xmlns:xlink="http://www.w3.org/1999/xlink">
    <title>编组 2</title>
    <g id="页面-1" stroke="none" stroke-width="1" fill="none" fill-rule="evenodd" opacity="0.8">
        <g id="组件" transform="translate(-683.000000, -192.000000)" fill="#FFFFFF" fill-rule="nonzero">
            <g id="编组-2" transform="translate(683.000000, 192.000000)">
                <path d="M10.1052961,5.85043367 C10.4156351,6.16061149 10.9475041,6.16061149 11.3018626,5.85043367 L14.3159243,2.88092874 L14.3159243,5.27418703 C14.3159243,5.62888576 14.5818677,5.89466804 14.9362262,5.89466804 L15.3793399,5.89466804 C15.7340386,5.89466804 16,5.67310221 16,5.36292439 L16,0.975000644 L15.9556045,0.975000644 L16,0.664858639 C16,0.487491367 15.9556045,0.354501731 15.8668313,0.221583729 C15.7784342,0.132971728 15.6009236,0.0443776352 15.4237175,0.0443776352 L15.1134144,0.0443776352 L10.7259025,1.02318154e-12 C10.3712217,1.02318154e-12 10.1052961,0.310339 10.1052961,0.620463095 L10.1052961,1.06373801 C10.1496738,1.46263528 10.4596904,1.6842011 10.8143533,1.6842011 L13.1190175,1.6842011 L10.1496917,4.65372394 C9.75063324,4.96388385 9.75063324,5.49589612 10.1053141,5.85043367 L10.1052961,5.85043367 Z" id="路径" transform="translate(12.922303, 3.041534) rotate(-180.000000) translate(-12.922303, -3.041534) "></path>
                <path d="M5.89466804,10.1052603 C5.5846693,9.79495715 5.0528003,9.79495715 4.69810157,10.1052603 L1.68407574,13.0746399 L1.68407574,10.7255802 C1.68407574,10.3712217 1.41843673,10.1052603 1.06375591,10.1052603 L0.620337735,10.1052603 C0.265961364,10.1052603 0,10.3268262 0,10.6371293 L0,14.980568 L0.0443776352,14.980568 L0,15.2908712 C0,15.4680594 0.0443776352,15.6008699 0.13281055,15.7340028 C0.22156582,15.8227581 0.399076361,15.911191 0.576246638,15.911191 L0.886567729,15.911191 L5.27406167,15.9555686 C5.62906484,15.9555686 5.89468594,15.6452475 5.89468594,15.3352488 L5.89468594,14.8918306 C5.85030831,14.4930766 5.54030957,14.2715108 5.18562876,14.2715108 L2.88100038,14.2715108 L5.89472176,11.3018268 C6.20502494,10.9915236 6.20502494,10.4596367 5.89470385,10.1052603 L5.89466804,10.1052603 Z" id="路径" transform="translate(3.063723, 12.914051) rotate(-180.000000) translate(-3.063723, -12.914051) "></path>
                <path d="M15.9555686,15.0249277 L15.9555686,10.6811846 C15.9555686,10.3268262 15.6452296,10.1496559 15.3352309,10.1496559 L14.8918306,10.1496559 C14.5374543,10.1496559 14.2714929,10.4596546 14.2714929,10.7699757 L14.2714929,13.1190175 L11.2574671,10.1496559 C10.9474862,9.83931687 10.4155814,9.83931687 10.0608827,10.1496559 C9.75059742,10.4596546 9.75059742,10.9915236 10.0608827,11.3462044 L13.074622,14.3155661 L10.7699578,14.3155661 C10.4155993,14.3155661 10.1052603,14.5374184 10.0608827,14.9361725 L10.0608827,15.379322 C10.0608827,15.7340028 10.3712396,15.9999284 10.6812383,15.9999284 L14.9805859,15.9555507 L15.2909249,15.9555507 C15.4680952,15.9555507 15.6009236,15.9111731 15.7340386,15.7783625 C15.822776,15.6896073 15.8668313,15.5124191 15.8668313,15.3352309 L15.9555686,15.0249277 C15.911191,15.0249277 15.9555686,15.0249277 15.9555686,15.0249277 L15.9555686,15.0249277 Z" id="路径" transform="translate(12.891869, 12.958415) rotate(-180.000000) translate(-12.891869, -12.958415) "></path>
                <path d="M2.9253422,1.68421901 L5.23000639,1.68421901 C5.58470512,1.68421901 5.89470385,1.46263528 5.93906358,1.06375591 L5.93906358,0.620463095 C5.93906358,0.265925547 5.62908275,0 5.31845721,0 L0.930963273,0.0443776352 L0.620337735,0.0443776352 C0.443471905,0.0443776352 0.310339,0.0887552705 0.177224003,0.221583729 C0.0887731791,0.310339 0.0444134525,0.487509276 0.0444134525,0.664858639 L0.0887731791,0.975000644 L0.0444134525,0.975000644 L0.0444134525,5.3629423 C0.0444134525,5.71747985 0.310356908,5.89468594 0.664733279,5.89468594 L1.10784701,5.89468594 C1.46285018,5.89468594 1.72847128,5.62890367 1.72847128,5.27422285 L1.72847128,2.88091083 L4.74219267,5.85043367 C5.05281821,6.16061149 5.58470512,6.16061149 5.93906358,5.85043367 C6.24942049,5.54013049 6.24942049,5.00826148 5.93906358,4.65372394 L2.9253422,1.68421901 Z" id="路径" transform="translate(3.108122, 3.041534) rotate(-180.000000) translate(-3.108122, -3.041534) "></path>
            </g>
        </g>
    </g>
</svg>